# xmcd
# Track frame offsets:
# 182
# 8730
# 20807
# 32105
# 42632
# 51640
# 66987
# 82067
# 91967
# 105312
# 117487
# 128315
# 138372
# 149710
# 165010
# 175887
# 188822
# 202355
# 213440
# 233227
#
# Disc length: 3313 seconds
# Revision: 6
# Processed by: cddbd v1.5.1PL0 Copyright (c) Steve Scherf et al.
# Submitted via: VisiTrax 2.9.10.228 - For more info visit www.synapsa.com
#
DISCID=270cef14
DTITLE=Various Artist - Country and Western Favourites - Volume 3
DYEAR=1992
DGENRE=Country
TTITLE0=Waylon Jennings - Abile
TTITLE1=Conway Twitty - Sittin' in a dim café
TTITLE2=George Jones - Once a day
TTITLE3=Gene Simmons - Way down yonder in Baton Rouge
TTITLE4=Sandy Posey - Born a woman
TTITLE5=Don Fardon - Indian reservation
TTITLE6=Jeannie C. Riley - HArper Valley P.T.A.
TTITLE7=Dave Duddley - Cowboys boots
TTITLE8=Roy Acuff - Tennessee Waltz
TTITLE9=Tex Ritter - Goodbye my little Cherokee
TTITLE10=Donna Fargo - All that's keeping me alive
TTITLE11=Johnny Paycheck - Who needs your love
TTITLE12=Rex Allen Jnr. - Dream on Texas ladies
TTITLE13=Kenny Rogers and The First Edition - For the good times
TTITLE14=Ferlin Husky - Gone
TTITLE15=Lee Hazlewood - These boots are made for walking
TTITLE16=Tennessee - Kentucky sundown
TTITLE17=Hank Locklin - Send me the pillow that you dream on
TTITLE18=Marty Robbins - El Paso
TTITLE19=Jim Reeves - The blizzard
EXTD=YEAR: 1992
EXTT0=
EXTT1=
EXTT2=
EXTT3=
EXTT4=
EXTT5=
EXTT6=
EXTT7=
EXTT8=
EXTT9=
EXTT10=
EXTT11=
EXTT12=
EXTT13=
EXTT14=
EXTT15=
EXTT16=
EXTT17=
EXTT18=
EXTT19=
PLAYORDER=
